<svg id="Layer_1" data-name="Layer 1" xmlns="http://www.w3.org/2000/svg" viewBox="0 0 157.21 51.66"><defs><style>.cls-1{fill:#26426f;}</style></defs><title>air_logo</title><path class="cls-1" d="M566.21,145.08h0.1l4.53,12.66h-9.11Zm5.35,27.32H584v-1.17c-3.19-.26-3.86-0.62-5.51-4.94-2-5.25-4.27-11.78-6.69-18.32l-3.65-9.77-1.18.46L556.38,166c-1.8,4.57-2.21,4.88-5.56,5.24v1.17h11v-1.17l-1.54-.16c-2.31-.21-2.78-0.88-1.8-3.87,0.72-2.16,2.06-6.17,2.57-7.51h10.45c1.44,3.7,2.93,7.72,3.29,9,0.52,1.59.31,2.16-1.59,2.37l-1.65.21v1.17Z" transform="translate(-494.98 -138.19)"/><path class="cls-1" d="M595.05,164.94c0,5.61.41,6,4.63,6.28v1.18H586.1v-1.18c4.22-.31,4.63-0.67,4.63-6.28V146.42c0-5.61-.41-6-4.63-6.27V139h13.58v1.19c-4.22.3-4.63,0.66-4.63,6.27v18.52Z" transform="translate(-494.98 -138.19)"/><path class="cls-1" d="M611,142c0-1,.16-1.28.46-1.39a8.89,8.89,0,0,1,2.88-.26c3.85,0,7.77,2.16,7.77,7.57a8.29,8.29,0,0,1-3,6.79c-1.39,1.13-3,1.38-5.15,1.38h-3V142Zm0,15.6h2.78a3.29,3.29,0,0,1,3.24,1.85c1.44,2.42,3.6,6.23,5.2,8.54,2,2.84,3.75,4.63,9.67,4.79h0.72l0.1-1a6.65,6.65,0,0,1-3.86-2.57,48.22,48.22,0,0,1-4.32-5.66c-1.54-2.26-3.65-5.81-4.58-7.36,4.17-1.7,6.79-4.73,6.79-9a7.49,7.49,0,0,0-3.4-6.59c-1.9-1.29-4.83-1.75-8.13-1.75H602.1V140c4.12,0.3,4.53.67,4.53,6.28v18.53c0,5.61-.41,6-4.73,6.27v1.19h13.69v-1.19c-4.22-.3-4.63-0.67-4.63-6.27v-7.26Z" transform="translate(-494.98 -138.19)"/><path class="cls-1" d="M630.46,138.71a2.17,2.17,0,1,1-2.16,2.17,2.14,2.14,0,0,1,2.16-2.17h0Zm0,0.34a1.84,1.84,0,0,0,0,3.67,1.84,1.84,0,0,0,0-3.67h0Zm-0.4,3.09h-0.38v-2.42a4.41,4.41,0,0,1,.68-0.06,1.28,1.28,0,0,1,.75.18,0.58,0.58,0,0,1,.22.5,0.6,0.6,0,0,1-.47.59v0a0.59,0.59,0,0,1,.4.59,2,2,0,0,0,.15.6H631a1.79,1.79,0,0,1-.16-0.62,0.46,0.46,0,0,0-.52-0.42H630v1Zm0-1.34h0.28a0.48,0.48,0,0,0,.58-0.41,0.47,0.47,0,0,0-.58-0.42L630,140v0.82Z" transform="translate(-494.98 -138.19)"/><path class="cls-1" d="M495,138.19v51.66h51.67V138.19H495ZM505.86,187H503.8v-7.5c0-4.31-1.65-7.8-3.67-7.8a2.79,2.79,0,0,0-2.21,1.57c0.59-2.92,2.09-5,3.83-5,2.27,0,4.11,3.49,4.11,7.81V187Zm8.67,0h-1.88v-8.85c0-3.47-1.35-6.29-3-6.29a2.18,2.18,0,0,0-1.71,1.12c0.36-2.73,1.68-4.75,3.25-4.75,1.86,0,3.36,2.82,3.36,6.28V187Zm6.08,0h-1.54v-8.82c0-3.59-.8-6.51-1.79-6.51a1.5,1.5,0,0,0-1,1.16c0.29-2.64,1.13-4.55,2.13-4.55,1.23,0,2.23,2.91,2.23,6.5V187Zm5.27,0H524.6v-9.34c0-3.28-.66-5.95-1.46-5.95a1.25,1.25,0,0,0-.82,1c0.21-2.54.91-4.41,1.75-4.41,1,0,1.81,2.67,1.81,6V187Zm17.8-.13H526.82V166.75h-29v-2.13h30.65v-0.49c-2-2.31-8.09-2.11-8.09-2.11l-22.57-.16V160h34.71v-0.38c-1.84-2.43-8.18-2.22-8.18-2.22l-26.53-.19v-1.91h38.33V148.4H497.82V141h45.86V186.9Z" transform="translate(-494.98 -138.19)"/><path class="cls-1" d="M555.93,178.84h0l1.77,5h-3.57Zm2.1,10.71h4.88v-0.46c-1.25-.11-1.51-0.24-2.16-1.94-0.79-2.06-1.68-4.62-2.63-7.19l-1.42-3.83-0.47.18L552.08,187c-0.7,1.8-.86,1.91-2.18,2.06v0.46h4.32v-0.46l-0.6-.06c-0.91-.08-1.09-0.34-0.71-1.51,0.28-.85.8-2.42,1-2.95H558c0.56,1.45,1.14,3,1.29,3.51s0.12,0.85-.62.92l-0.65.09v0.46Z" transform="translate(-494.98 -138.19)"/><path class="cls-1" d="M569.79,180a5.58,5.58,0,0,1,.38,1.94,0.42,0.42,0,0,1-.58.07,2.34,2.34,0,0,0-2.11-1.75,1.42,1.42,0,0,0-1.54,1.46c0,1,1,1.51,1.85,2,1.27,0.72,2.45,1.54,2.45,3.24s-1.68,2.74-3.46,2.74a4,4,0,0,1-2.57-.72,7.16,7.16,0,0,1-.29-2.42,0.41,0.41,0,0,1,.55,0c0.41,1.32,1.18,2.47,2.54,2.47a1.48,1.48,0,0,0,1.61-1.54c0-1.1-1-1.7-1.85-2.21-1.39-.79-2.38-1.63-2.38-3,0-1.75,1.44-2.74,3.26-2.74A4.24,4.24,0,0,1,569.79,180Z" transform="translate(-494.98 -138.19)"/><path class="cls-1" d="M578.14,180a5.58,5.58,0,0,1,.38,1.94,0.42,0.42,0,0,1-.58.07,2.34,2.34,0,0,0-2.11-1.75,1.42,1.42,0,0,0-1.54,1.46c0,1,1,1.51,1.85,2,1.27,0.72,2.45,1.54,2.45,3.24s-1.68,2.74-3.46,2.74a4,4,0,0,1-2.57-.72,7.16,7.16,0,0,1-.29-2.42,0.41,0.41,0,0,1,.55,0c0.41,1.32,1.18,2.47,2.54,2.47a1.48,1.48,0,0,0,1.61-1.54c0-1.1-1-1.7-1.85-2.21-1.39-.79-2.38-1.63-2.38-3,0-1.75,1.44-2.74,3.26-2.74A4.24,4.24,0,0,1,578.14,180Z" transform="translate(-494.98 -138.19)"/><path class="cls-1" d="M582.73,183.22c-0.62,0-.65,0-0.65.65,0,2.42,1.42,4.49,4,4.49a2.59,2.59,0,0,0,2.21-1.18,0.32,0.32,0,0,1,.43.29,4.19,4.19,0,0,1-3.77,2.23,4.3,4.3,0,0,1-3.48-1.58,5.09,5.09,0,0,1-1-3.12c0-3,1.94-5.42,4.82-5.42a3.15,3.15,0,0,1,3.41,2.86,1.48,1.48,0,0,1-.1.62c-0.07.14-.41,0.17-1.42,0.17h-4.44Zm1.49-.72c1.78,0,2.3-.1,2.5-0.24a0.48,0.48,0,0,0,.14-0.46,1.58,1.58,0,0,0-1.85-1.51,2.82,2.82,0,0,0-2.66,2.09s0,0.12.17,0.12h1.7Z" transform="translate(-494.98 -138.19)"/><path class="cls-1" d="M596,180a5.58,5.58,0,0,1,.38,1.94,0.42,0.42,0,0,1-.58.07,2.34,2.34,0,0,0-2.11-1.75,1.42,1.42,0,0,0-1.54,1.46c0,1,1,1.51,1.85,2,1.27,0.72,2.45,1.54,2.45,3.24s-1.68,2.74-3.46,2.74a4,4,0,0,1-2.57-.72,7.16,7.16,0,0,1-.29-2.42,0.41,0.41,0,0,1,.55,0c0.41,1.32,1.18,2.47,2.54,2.47a1.48,1.48,0,0,0,1.61-1.54c0-1.1-1-1.7-1.85-2.21-1.39-.79-2.38-1.63-2.38-3,0-1.75,1.44-2.74,3.26-2.74A4.24,4.24,0,0,1,596,180Z" transform="translate(-494.98 -138.19)"/><path class="cls-1" d="M604.11,180a5.58,5.58,0,0,1,.38,1.94,0.42,0.42,0,0,1-.58.07,2.34,2.34,0,0,0-2.11-1.75,1.42,1.42,0,0,0-1.54,1.46c0,1,1,1.51,1.85,2,1.27,0.72,2.45,1.54,2.45,3.24s-1.68,2.74-3.46,2.74a4,4,0,0,1-2.57-.72,7.16,7.16,0,0,1-.29-2.42,0.41,0.41,0,0,1,.55,0c0.41,1.32,1.18,2.47,2.54,2.47a1.48,1.48,0,0,0,1.61-1.54c0-1.1-1-1.7-1.85-2.21-1.39-.79-2.38-1.63-2.38-3,0-1.75,1.44-2.74,3.26-2.74A4.24,4.24,0,0,1,604.11,180Z" transform="translate(-494.98 -138.19)"/><path class="cls-1" d="M619.85,183.2c0-1.63-.72-2.47-2.23-2.47a2.59,2.59,0,0,0-2,.84,1.86,1.86,0,0,0-.36,1.44v3.67c0,1.73,0,2,.91,2.09l0.5,0.07a0.42,0.42,0,0,1,0,.6c-0.72,0-1.42-.07-2.26-0.07s-1.51,0-2.18.07a0.42,0.42,0,0,1,0-.6l0.43-.07c0.89-.14.91-0.36,0.91-2.09V183.2c0-1.61-.72-2.47-2.21-2.47a2.57,2.57,0,0,0-2,.86,1.87,1.87,0,0,0-.36,1.37v3.72c0,1.73,0,1.94.91,2.09l0.43,0.07a0.42,0.42,0,0,1,0,.6c-0.65,0-1.34-.07-2.18-0.07s-1.58,0-2.33.07a0.42,0.42,0,0,1,0-.6l0.58-.07c0.89-.12.91-0.36,0.91-2.09v-4.2c0-.94,0-1.06-0.65-1.49l-0.22-.14a0.33,0.33,0,0,1,0-.43,13,13,0,0,0,2.4-1.18,0.28,0.28,0,0,1,.26.17c0,0.55,0,.91,0,1.13a0.25,0.25,0,0,0,.26.26,5.77,5.77,0,0,1,3.19-1.22,2.74,2.74,0,0,1,2.54,1.42,0.76,0.76,0,0,0,.6-0.19,6,6,0,0,1,3.26-1.22,2.71,2.71,0,0,1,2.86,3v4.13c0,1.73,0,2,.91,2.09l0.58,0.07a0.42,0.42,0,0,1,0,.6c-0.79,0-1.49-.07-2.33-0.07s-1.51,0-2.18.07a0.42,0.42,0,0,1,0-.6l0.43-.07c0.89-.14.91-0.36,0.91-2.09V183.2Z" transform="translate(-494.98 -138.19)"/><path class="cls-1" d="M626.5,183.22c-0.62,0-.65,0-0.65.65,0,2.42,1.42,4.49,4,4.49a2.59,2.59,0,0,0,2.21-1.18,0.32,0.32,0,0,1,.43.29,4.19,4.19,0,0,1-3.77,2.23,4.3,4.3,0,0,1-3.48-1.58,5.09,5.09,0,0,1-1-3.12c0-3,1.94-5.42,4.82-5.42a3.15,3.15,0,0,1,3.41,2.86,1.48,1.48,0,0,1-.1.62c-0.07.14-.41,0.17-1.42,0.17H626.5Zm1.49-.72c1.78,0,2.3-.1,2.5-0.24a0.48,0.48,0,0,0,.14-0.46,1.58,1.58,0,0,0-1.85-1.51,2.82,2.82,0,0,0-2.66,2.09s0,0.12.17,0.12H628Z" transform="translate(-494.98 -138.19)"/><path class="cls-1" d="M635.17,182.48c0-.94,0-1.06-0.65-1.49l-0.22-.14a0.33,0.33,0,0,1,0-.43,13,13,0,0,0,2.4-1.18,0.28,0.28,0,0,1,.26.17c0,0.55,0,.91,0,1.13a0.25,0.25,0,0,0,.26.26,6.58,6.58,0,0,1,3.36-1.22,2.66,2.66,0,0,1,2.81,3v4.13c0,1.73,0,2,.91,2.09l0.53,0.07a0.42,0.42,0,0,1,0,.6c-0.72,0-1.42-.07-2.26-0.07s-1.58,0-2.23.07a0.42,0.42,0,0,1,0-.6l0.46-.07c0.89-.14.91-0.36,0.91-2.09V183.1a2.08,2.08,0,0,0-2.26-2.38,2.62,2.62,0,0,0-2,.84,2,2,0,0,0-.36,1.44v3.67c0,1.73,0,1.94.91,2.09l0.43,0.07a0.42,0.42,0,0,1,0,.6c-0.65,0-1.34-.07-2.18-0.07s-1.58,0-2.26.07a0.42,0.42,0,0,1,0-.6l0.5-.07c0.89-.12.91-0.36,0.91-2.09v-4.2Z" transform="translate(-494.98 -138.19)"/><path class="cls-1" d="M649.3,180.92c-0.41,0-.43.07-0.43,0.58V186c0,1.39.17,2.67,1.75,2.67a1.84,1.84,0,0,0,.65-0.12c0.22-.07.53-0.34,0.6-0.34a0.32,0.32,0,0,1,.24.41,3.32,3.32,0,0,1-2.52,1.1c-2.06,0-2.5-1.15-2.5-2.59v-5.5c0-.65,0-0.7-0.5-0.7h-0.67a0.4,0.4,0,0,1-.07-0.5,4.75,4.75,0,0,0,1.54-.74,6,6,0,0,0,1-1.42,0.45,0.45,0,0,1,.5.12v1.08c0,0.43,0,.46.43,0.46H652a0.77,0.77,0,0,1,0,1H649.3Z" transform="translate(-494.98 -138.19)"/></svg>