<?xml version="1.0" encoding="utf-8"?>
<!-- Generator: Adobe Illustrator 19.1.0, SVG Export Plug-In . SVG Version: 6.00 Build 0)  -->
<svg version="1.1" id="Layer_1" xmlns="http://www.w3.org/2000/svg" xmlns:xlink="http://www.w3.org/1999/xlink" x="0px" y="0px"
	 viewBox="0 0 128 128" style="enable-background:new 0 0 128 128;" xml:space="preserve">
<g>
	<path d="M84,65.5L31.1,30.4c-2.8-1.9-5.2-4-5.2-7.9c0.1-4.2,3.6-8,7.9-8c2.2,0,4.3,1,6.1,2.2l61.2,40.7c3.3,2.1,5.7,3.9,5.5,8
		c0,4.3-2.2,5.9-5.5,8L40,114.1c-1.8,1.2-3.9,2.5-6.4,2.5c-4.2,0-7.7-4-7.7-8.2c0.1-3.7,1.9-5.7,4.9-7.6L84,65.5z"/>
</g>
</svg>
