<svg xmlns="http://www.w3.org/2000/svg" width="40" height="40" viewBox="0 0 40 40">
  <defs>
    <style>
      .cls-1 {
        fill: #fff;
      }

      .cls-1, .cls-2 {
        fill-rule: evenodd;
      }

      .cls-2 {
        fill: #fc0;
        stroke: #fc0;
        stroke-width: 2px;
      }
    </style>
  </defs>
  <path id="Flag_2" data-name="Flag 2" class="cls-1" d="M11.071,6c-0.513,0-2.054.416-2.054,0.929V32.857l1.424,1.189L12,32.857V21.125a1.318,1.318,0,0,1,.418-0.35c1.409-.741,8.038-3.1,10.561-2.755l0.01,1.816C24.712,22.056,31.9,19.7,31.9,19.7l0.054-11.37C28.989,9.3,27.047,10,24.572,9.4c-0.928-.225-0.625.053-0.716-0.269a10.559,10.559,0,0,0-.825-2.057S14.424,5.767,12.154,6.045C12.069,6.055,11.522,6,11.071,6ZM12,7.116V20.438a0.222,0.222,0,0,0,.311-0.126c1.934-4.64.7-11.094,0-13.061C12.088,6.626,12,7.054,12,7.116Z"/>
  <path class="cls-2" d="M13.983,28.889L15.4,27.016l6.621,6.1L20.6,34.984Z"/>
  <path class="cls-2" d="M20.639,34.987l-1.626-1.626L29.361,23.013l1.626,1.626Z"/>
</svg>
