<?xml version="1.0" encoding="utf-8"?>
<!-- Generator: Adobe Illustrator 19.2.1, SVG Export Plug-In . SVG Version: 6.00 Build 0)  -->
<svg version="1.1" id="Layer_1" xmlns="http://www.w3.org/2000/svg" xmlns:xlink="http://www.w3.org/1999/xlink" x="0px" y="0px"
	 viewBox="0 0 80 40" width="80" height="40"  style="enable-background:new 0 0 80 40;" xml:space="preserve">
<style type="text/css">
	.st0{fill:#FFFFFF;}
	.st1{fill:#FFCC00;stroke:#FFCC00;stroke-width:2;}
	.st2{fill:none;enable-background:new    ;}
</style>
<path id="Flag_2" class="st0" d="M11.1,6C10.6,6,9,6.4,9,6.9v25.9l1.4,1.2l1.6-1.2V21.1c0.1-0.1,0.3-0.3,0.4-0.4
	c1.4-0.7,8-3.1,10.6-2.8l0,1.8c1.7,2.2,8.9-0.1,8.9-0.1L32,8.3c-3,1-4.9,1.7-7.4,1.1c-0.9-0.2-0.6,0.1-0.7-0.3
	c-0.2-0.7-0.5-1.4-0.8-2.1c0,0-8.6-1.3-10.9-1C12.1,6.1,11.5,6,11.1,6z M12,7.1v13.3c0.1,0.1,0.2,0,0.3-0.1c0,0,0,0,0,0
	c1.9-4.6,0.7-11.1,0-13.1C12.1,6.6,12,7.1,12,7.1z"/>
<path class="st1" d="M14,28.9l1.4-1.9l6.6,6.1L20.6,35L14,28.9z"/>
<path class="st1" d="M20.6,35L19,33.4L29.4,23l1.6,1.6L20.6,35z"/>
<path class="st2" d="z"/>
<path class="st0" d="M75.6,31.4l-14.2-25c-0.3-0.5-1-0.7-1.5-0.4c-0.2,0.1-0.3,0.2-0.4,0.4l-14.2,25c-0.2,0.3-0.2,0.8,0,1.1
	c0.2,0.3,0.6,0.6,1,0.5h28.5c0.4,0,0.8-0.2,1-0.5C75.8,32.2,75.8,31.8,75.6,31.4L75.6,31.4z M62.1,29.8h-3.5v-3.2h3.5
	C62.1,26.7,62.1,29.9,62.1,29.8z M62.1,24.2h-3.5v-9.6h3.5V24.2z"/>
</svg>
