<?xml version="1.0" encoding="utf-8"?>
<!-- Generator: Adobe Illustrator 19.2.1, SVG Export Plug-In . SVG Version: 6.00 Build 0)  -->
<svg version="1.1" id="Layer_1" xmlns="http://www.w3.org/2000/svg" xmlns:xlink="http://www.w3.org/1999/xlink" x="0px" y="0px"
	 viewBox="0 0 80 40" width="80" height="40" style="enable-background:new 0 0 80 40;" xml:space="preserve">
<style type="text/css">
.cls-1 {
        fill: #00496c;
      }

      .cls-1, .cls-2 {
        fill-rule: evenodd;
      }

      .cls-2 {
        fill: #034a1f;
        stroke: #034a1f;
        stroke-width: 2px;
      }
	.st0{fill:#00496C;}
	.st1{fill:#034A1F;stroke:#034A1F;stroke-width:2;}
	.st2{fill:#EC4E1B;}
</style>
<path id="Flag_2" data-name="Flag 2" class="cls-1" d="M11.071,6c-0.513,0-2.054.416-2.054,0.929V32.857l1.424,1.189L12,32.857V21.125a1.318,1.318,0,0,1,.418-0.35c1.409-.741,8.038-3.1,10.561-2.755l0.01,1.816C24.712,22.056,31.9,19.7,31.9,19.7l0.054-11.37C28.989,9.3,27.047,10,24.572,9.4c-0.928-.225-0.625.053-0.716-0.269a10.559,10.559,0,0,0-.825-2.057S14.424,5.767,12.154,6.045C12.069,6.055,11.522,6,11.071,6ZM12,7.116V20.438a0.222,0.222,0,0,0,.311-0.126c1.934-4.64.7-11.094,0-13.061C12.088,6.626,12,7.054,12,7.116Z"/>
  <path class="cls-2" d="M13.983,28.889L15.4,27.016l6.621,6.1L20.6,34.984Z"/>
  <path class="cls-2" d="M20.639,34.987l-1.626-1.626L29.361,23.013l1.626,1.626Z"/>
<path class="st2" d="M75.2,32.2L61,7.2c-0.3-0.5-1-0.7-1.5-0.4c-0.2,0.1-0.3,0.2-0.4,0.4l-14.2,25c-0.2,0.3-0.2,0.8,0,1.1
	c0.2,0.3,0.6,0.6,1,0.5h28.5c0.4,0,0.8-0.2,1-0.5C75.4,33,75.4,32.6,75.2,32.2L75.2,32.2z M61.7,30.6h-3.5v-3.2h3.5
	C61.7,27.5,61.7,30.7,61.7,30.6z M61.7,25h-3.5v-9.6h3.5V25z"/>
</svg>
