<?xml version="1.0" encoding="utf-8"?>
<!-- Generator: Adobe Illustrator 19.2.1, SVG Export Plug-In . SVG Version: 6.00 Build 0)  -->
<svg version="1.1" id="Layer_1" xmlns="http://www.w3.org/2000/svg" xmlns:xlink="http://www.w3.org/1999/xlink" x="0px" y="0px"
	 viewBox="0 0 40 40" width="40" height="40"  style="enable-background:new 0 0 40 40;" xml:space="preserve">
<style type="text/css">
	.st0{fill:#FFFFFF;}
	.st1{fill:none;enable-background:new    ;}
</style>
<path class="st0" d="M34.6,32L20.4,7c-0.3-0.5-1-0.7-1.5-0.4c-0.2,0.1-0.3,0.2-0.4,0.4L4.3,32c-0.2,0.3-0.2,0.8,0,1.1s0.6,0.6,1,0.5
	h28.5c0.4,0,0.8-0.2,1-0.5C34.8,32.8,34.8,32.4,34.6,32L34.6,32z M21.1,30.4h-3.5v-3.2h3.5C21.1,27.3,21.1,30.5,21.1,30.4z
	 M21.1,24.8h-3.5v-9.6h3.5V24.8z"/>
<path class="st1" d="z"/>
</svg>
