<?xml version="1.0" encoding="utf-8"?>
<!-- Generator: Adobe Illustrator 19.2.1, SVG Export Plug-In . SVG Version: 6.00 Build 0)  -->
<svg version="1.1" id="Layer_1" xmlns="http://www.w3.org/2000/svg" xmlns:xlink="http://www.w3.org/1999/xlink" x="0px" y="0px"
	 viewBox="0 0 40 40" width="40" height="40"  style="enable-background:new 0 0 40 40;" xml:space="preserve">
<style type="text/css">
	.st0{fill:#EC4E1B;}
</style>
<title>unanswered</title>
<path class="st0" d="M35.2,32.2l-14.2-25c-0.3-0.5-1-0.7-1.5-0.4c-0.2,0.1-0.3,0.2-0.4,0.4l-14.2,25c-0.2,0.3-0.2,0.8,0,1.1
	c0.2,0.3,0.6,0.6,1,0.5h28.5c0.4,0,0.8-0.2,1-0.5C35.4,33,35.4,32.6,35.2,32.2L35.2,32.2z M21.7,30.6h-3.5v-3.2h3.5
	C21.7,27.5,21.7,30.7,21.7,30.6z M21.7,25h-3.5v-9.6h3.5V25z"/>
</svg>
